# xmcd
#
# Track frame offsets:
#	150
#	19127
#	36535
#	55705
#	72440
#	93387
#	111962
#	132565
#	148822
#	167627
#	180757
#	195965
#	214812
#	234372
#	251590
#
# Disc length: 3515 seconds
#
# Revision: 1
# Processed by: cddbd v1.5.1PL2 Copyright (c) Steve Scherf et al.
# Submitted via: audiograbber 1.83.01
#
DISCID=d40db90f
DTITLE=Music Maestro - MM6289
DYEAR=1900
DGENRE=Karaoke
TTITLE0=Adkins, Trace - Don't Lie
TTITLE1=Sellers, Jason - Matter Of Time, A
TTITLE2=Hill, Faith - Breathe
TTITLE3=Alabama - Small Stuff
TTITLE4=Brandt, Paul - It's A Beautiful Thing
TTITLE5=Messina, Jo Dee - Because You Love Me
TTITLE6=McGraw, Tim - My Best Friend
TTITLE7=Holy, Steve - Don't Make Me Beg
TTITLE8=Carpenter, Mary Chapin - Wherever You Are
TTITLE9=Elliot, Alecia - I'm Diggin' It
TTITLE10=Tippin, Aaron - What This Country Needs
TTITLE11=Womack, Lee Ann - Don't Tell Me
TTITLE12=White, Bryan - God Gave Me You
TTITLE13=Urban, Keith - It's A Love Thing
TTITLE14=Brooks and Dunn - Beer Thirty
EXTD=As Listed In KJ Pro
EXTT0=
EXTT1=
EXTT2=
EXTT3=
EXTT4=
EXTT5=
EXTT6=
EXTT7=
EXTT8=
EXTT9=
EXTT10=
EXTT11=
EXTT12=
EXTT13=
EXTT14=
PLAYORDER=
